# xmcd
#
# Track frame offsets:
#	150
#	23914
#	41861
#	58241
#	78037
#	96110
#	113275
#	130009
#	146513
#	163011
#	181701
#	202347
#	226132
#	243150
#	263624
#	286949
#	315250
#
# Disc length: 4218 seconds
#
# Revision: 1
# Processed by: cddbd v1.5.2PL0 Copyright (c) Steve Scherf et al.
# Submitted via: audiograbber 1.83.01
#
DISCID=d7107811
DTITLE=Misc - Misc
DYEAR=1900
DGENRE=
TTITLE0=When The Sun Goes Down
TTITLE1=Awful beautiful Life
TTITLE2=Some Beach
TTITLE3=I Go Back
TTITLE4=Days Go By
TTITLE5=Stays In Mexico
TTITLE6=Mud On The Tires
TTITLE7=Save A Horse Ride A Cowboy
TTITLE8=That's What its All About
TTITLE9=I Hate Everything
TTITLE10=Remember When
TTITLE11=Back When
TTITLE12=Honty Tonk U
TTITLE13=Whiskey Lullaby
TTITLE14=Live Like You Were Dying
TTITLE15=Nuthing On But The Radio
TTITLE16=Data Track
EXTD=Nashville Star
EXTT0=
EXTT1=
EXTT2=
EXTT3=
EXTT4=
EXTT5=
EXTT6=
EXTT7=
EXTT8=
EXTT9=
EXTT10=
EXTT11=
EXTT12=
EXTT13=
EXTT14=
EXTT15=
EXTT16=
PLAYORDER=
